<mxfile host="app.diagrams.net" modified="2024-06-19T10:51:05.474Z" agent="Mozilla/5.0 (Macintosh; Intel Mac OS X 10_15_7) AppleWebKit/605.1.15 (KHTML, like Gecko) Version/18.0 Safari/605.1.15" version="24.5.5" etag="3mrltxoRabZC4EcuIeLk" type="github">
  <diagram name="第 1 页" id="8p04_A8B1lnvE8KwoUte">
    <mxGraphModel>
      <root>
        <mxCell id="0" />
        <mxCell id="1" parent="0" />
      </root>
    </mxGraphModel>
  </diagram>
</mxfile>
